<?xml version="1.0" encoding="UTF-8"?>
<svg id="Layer_1" xmlns="http://www.w3.org/2000/svg" version="1.1" viewBox="0 0 461.8 263.3">
  <!-- Generator: Adobe Illustrator 30.1.0, SVG Export Plug-In . SVG Version: 2.1.1 Build 136)  -->
  <defs>
    <style>
      .st0 {
        fill: #d83d57;
      }

      .st1 {
        fill: #fff;
      }

      .st2 {
        fill: #8e2b45;
      }

      .st3 {
        opacity: .5;
      }

      .st4 {
        fill: #e8e8da;
      }

      .st5 {
        fill: #b53939;
      }
    </style>
  </defs>
  <path class="st5" d="M436.8,142.7c-8.8-18.3-17.6-36.6-26.3-54.9-18-37.5-57.4-75.4-99.6-83.7-58.7-11.5-116,2.1-166.9,31.7-48.9,28.5-68.7,82-87.2,133.4-3.3,9.3-6.6,20-1.7,28.6,5.1,9.1,17.7,11.7,27.7,8.7s18.1-10.2,26-17.1c7.9-6.9,16.3-13.9,26.5-16.2"/>
  <g class="st3">
    <path class="st0" d="M143.8,61c31.8-25.9,71-38.1,111.1-44.5,36.2-5.7,73.3-5,105.5,11-15.2-11.4-32.1-20-49.6-23.4-58.7-11.5-116,2.1-166.9,31.7-48.9,28.5-68.7,82-87.2,133.4,0,.2-.1.4-.2.5,3.1,4.7,6.8,9.1,10.9,13,7.9-19.3,15.9-38.6,25.8-56.9,9.6-25.7,29.3-47.7,50.6-64.9Z"/>
  </g>
  <path class="st4" d="M119,193.4c-3.2-18.5-15.1-34.6-31-44.3-17.4-10.5-31.1-10.8-50.1-2.4-26.1,11.5-47,52.5-33.7,79.7,16.9,34.6,57.4,48.2,90.8,26,18.8-12.5,28-36.9,24.1-59.1Z"/>
  <path class="st1" d="M23.8,184.6c10.5-19.6,32.5-32.8,54.8-32.8,5.3,0,10.5.6,15.6,1.7-2-1.5-4-3-6.2-4.3-17.4-10.5-31.1-10.8-50.1-2.4-26.1,11.5-47,52.5-33.7,79.7,3.8,7.8,8.9,14.6,14.8,20.1-7-19.6-5.1-43.2,4.9-62Z"/>
  <path class="st2" d="M115.1,117.6c.2,26.5,8.6,51.9,24.4,73.3,1.2,1.7,4.1,0,2.8-1.6-15.5-20.9-23.8-45.6-24-71.6s-3.3-2.1-3.3,0h0Z"/>
  <path class="st4" d="M451.9,149.9c8.3,17.2,10.6,37.4,9.8,56.3-.3,7,.2,20.5-2.8,26.7s-11.5,2.3-20.2.3c-41.6-9.6-85-14.9-127.1-16-48.4-1.3-96.9,2.3-144.5,11.4-9.7,1.9-25.1,8.7-33.7,1.6-12.7-10.6-7-44.2-3.1-58,5.4-19,17.8-34.9,37.4-40.5,40.8-11.5,84.6-16.1,126.9-14.4,28.3,1.1,56.6,1.7,84.8,4.6,21.8,2.2,61.3,4.7,72.4,27.9Z"/>
  <path class="st1" d="M137.4,199.8c29.4-68.6,138.1-64.3,198.5-63.9,40.1.3,82.5,1.3,117.8,18.6-.6-1.5-1.3-3.1-2-4.6-11.2-23.2-50.7-25.7-72.4-27.9-28.2-2.9-56.5-3.5-84.8-4.6-42.3-1.7-86.1,2.9-126.9,14.4-19.6,5.5-32,21.4-37.4,40.5-3.6,12.8-8.8,42.6.6,55.3.8-9.5,2.5-18.5,6.5-27.8Z"/>
</svg>