<?xml version="1.0" encoding="UTF-8"?>
<svg id="Layer_1" xmlns="http://www.w3.org/2000/svg" version="1.1" viewBox="0 0 5000 5000">
  <!-- Generator: Adobe Illustrator 30.0.0, SVG Export Plug-In . SVG Version: 2.1.1 Build 123)  -->
  <defs>
    <style>
      .st0 {
        stroke: #231815;
        stroke-miterlimit: 10;
      }
    </style>
  </defs>
  <path class="st0" d="M2964.4,2792.6l-751.1-82.9-4.7,80.2-546.1-412.8c-65.3-49.4-158.5-35.2-206.2,31.4l-431.2,602.7c-50.9,71.2-38.3,169.7,28.9,225.7l3.3,2.8c77.3,64.5,192.2,50.3,250.9-30.5,132.1-181.5,337.7-464.1,337.7-464.1l743.1,549.9c44.8,33.2,102.4,43.8,156.1,28.9l94.5-26.2,422.7,1132.2c38.3,102.6,150.6,157,254.8,123.4l5-1.6c112.8-36.3,173.9-156.6,136.8-268.2-125.1-377.1-390.5-1177.3-494.6-1491h0Z"/>
  <path class="st0" d="M3783.4,1442.7h0c-73.6-39.2-165.1-11.7-204.9,61.6l-218.7,402.6-444.1-305.2-6.3-.7c-40.5,30.1-85.4,52.6-133.7,67-55.3,16.5-112.7,21.7-170.5,15.3-57.8-6.4-112.7-23.9-163.1-52.1-48.6-27.2-91.1-63.2-126.1-106.8-35-43.7-60.8-92.9-76.8-146.3-16.5-55.3-21.7-112.7-15.3-170.5s23.9-112.7,52.1-163.1c11-19.7,23.5-38.4,37.3-56l-149.4-538.8c-21.9-79.1-101.1-128-181.7-112.3h0c-89.7,17.6-145.6,107.7-121.4,195.8l395.7,1442.4-35.6,602.7,700.7,77.4,42.7-588.8,376.9,183.5c75.8,36.9,167.2,8,208-65.7l295.7-534.3c41.1-74.3,13.4-167.8-61.6-207.7h.1Z"/>
  <circle class="st0" cx="2652.5" cy="1254.8" r="381.5"/>
</svg>