<?xml version="1.0" encoding="UTF-8"?>
<svg id="Layer_1" xmlns="http://www.w3.org/2000/svg" version="1.1" viewBox="0 0 722 391">
  <!-- Generator: Adobe Illustrator 29.8.2, SVG Export Plug-In . SVG Version: 2.1.1 Build 3)  -->
  <defs>
    <style>
      .st0 {
        fill: none;
      }

      .st1 {
        fill: #ff3f60;
      }

      .st1, .st2, .st3, .st4, .st5, .st6, .st7 {
        fill-rule: evenodd;
      }

      .st2, .st8, .st9 {
        fill: #fffbeb;
      }

      .st3 {
        fill: #9a1c59;
      }

      .st4 {
        fill: #00c1ff;
      }

      .st5 {
        fill: #57ddad;
      }

      .st6 {
        fill: #0a64aa;
      }

      .st7 {
        fill: #ffb025;
      }

      .st9 {
        font-size: 45px;
      }

      .st9, .st10, .st11, .st12 {
        font-family: ArchivoBlack-Regular, 'Archivo Black';
      }

      .st10 {
        font-size: 178px;
      }

      .st10, .st11, .st12 {
        fill: #fff;
      }

      .st11 {
        font-size: 159.8px;
      }

      .st12 {
        font-size: 75.4px;
      }
    </style>
  </defs>
  <text class="st9" transform="translate(654.2 365.3)"><tspan x="0" y="0">8a</tspan></text>
  <text class="st9" transform="translate(5.7 365)"><tspan x="0" y="0">4a</tspan></text>
  <g>
    <rect class="st8" x="103" y="350.3" width="510.5" height="4.8"/>
    <polyline class="st2" points="613.5 338.8 634.4 352.3 613.5 365.8"/>
    <polyline class="st2" points="103 366.3 82.2 352.7 103 339.2"/>
  </g>
  <g>
    <path class="st7" d="M559.9,326.6c7.2-.2,11.5,7.6,16.2,13.1,4.1,4.9,8.3,9.8,8.8,16.2.5,6.8-1.2,14.2-6.4,18.6-5,4.2-12.2,3.7-18.6,2.8-5.4-.8-9.3-4.5-13.8-7.6-6.3-4.4-17-6.1-17.4-13.8-.4-7.6,10.3-10.1,15.9-15.3,5.2-4.9,8.1-13.8,15.3-14Z"/>
    <path class="st6" d="M393.8,324.3c7.4,1.6,9.5,10.6,14.5,16.2,4.5,5,11.6,7.9,13,14.5,1.7,7.8,1.8,18.3-5,22.5-6.8,4.2-14.5-4.9-22.5-5.5-6.9-.5-13.8,6.1-19.7,2.6-6.4-3.8-8.3-12.2-8.8-19.7-.5-8.1.4-16.6,5.9-22.5,5.6-6.1,14.4-9.9,22.5-8.2Z"/>
    <path class="st1" d="M314.7,326.9c6.2.9,11.5,4,16,8.3,4.7,4.4,9.2,9.6,9.4,16,.2,6.6-3.8,12.3-8.3,17.2-4.7,5.1-10.3,10.7-17.2,10.2-6.7-.5-9.7-8.2-14.7-12.7-5.5-5-14.2-7.4-15.5-14.7-1.5-7.9,2.5-16.5,8.7-21.5,5.9-4.7,14.1-3.9,21.5-2.8Z"/>
    <path class="st5" d="M473.2,323.9c6.6-.2,12.1,4.3,16.9,8.8,5.2,4.7,10.3,10,11.1,16.9.8,7.6-1.7,15.5-7,21-5.4,5.6-13.3,9.2-21,7.8-6.9-1.3-9.8-9-14.5-14.3-4.3-4.7-11-8.1-11.3-14.5-.3-6.5,5.3-11.3,9.9-15.9,4.6-4.6,9.4-9.6,15.9-9.9Z"/>
    <path class="st3" d="M233.4,337.2c6.2-.4,11.6-8.5,17.2-5.8,5.3,2.5,2.9,11,5,16.5,2.1,5.8,9.5,11,7.2,16.7-2.4,5.9-11.3,4.7-17,7.5-4.3,2.1-7.6,7-12.4,6.6-4.7-.3-7-6-11.1-8.3-5.1-2.8-14.3-1-15.7-6.6-1.4-5.9,8.8-8.2,10.8-13.9,1.9-5.3-4.2-12.9.2-16.4,4.3-3.4,10.2,4.1,15.7,3.8Z"/>
    <path class="st4" d="M162.3,333.1c6.3-1.2,13.2-4.1,18.6-.6,6,3.9,10.5,11.5,9.2,18.6-1.2,6.7-10.3,7.8-15,12.8-5.1,5.5-5.5,16.1-12.8,17.4-7.5,1.4-13.2-6.3-18.6-11.7-5.4-5.4-13.3-11-11.9-18.6,1.4-7.4,11.3-8.8,17.8-12.7,4.1-2.4,8-4.4,12.7-5.3Z"/>
  </g>
  <rect class="st0" x="363.9" y="328.4" width="287.1" height="107.7"/>
  <text class="st11" transform="translate(.3 120.8)"><tspan x="0" y="0">Guess</tspan></text>
  <text class="st10" transform="translate(162.6 249.8)"><tspan x="0" y="0">grade</tspan></text>
  <text class="st12" transform="translate(7.5 192.7)"><tspan x="0" y="0">the</tspan></text>
</svg>