<?xml version="1.0" encoding="UTF-8"?>
<svg id="Layer_1" xmlns="http://www.w3.org/2000/svg" version="1.1" viewBox="0 0 722 391">
  <!-- Generator: Adobe Illustrator 30.0.0, SVG Export Plug-In . SVG Version: 2.1.1 Build 123)  -->
  <defs>
    <style>
      .st0 {
        fill: #ff3f60;
      }

      .st0, .st1, .st2, .st3, .st4, .st5, .st6 {
        fill-rule: evenodd;
      }

      .st1 {
        fill: #9a1c59;
      }

      .st2 {
        fill: #00c1ff;
      }

      .st7 {
        isolation: isolate;
      }

      .st3 {
        fill: #57ddad;
      }

      .st5 {
        fill: #0a64aa;
      }

      .st6 {
        fill: #ffb025;
      }
    </style>
  </defs>
  <g class="st7">
    <g class="st7">
      <path d="M675.3,334.9c1.8.7,3.3,1.8,4.3,3.1,1.1,1.4,1.6,3,1.6,4.9s-.3,2.9-.9,3.8c-.6.9-1.6,1.8-2.8,2.7v.2c1.6.9,2.9,1.9,3.7,3s1.2,2.5,1.2,4.2c0,2.9-1.2,5.1-3.6,6.7-2.4,1.6-5.6,2.3-9.7,2.3s-7.3-.8-9.6-2.3-3.5-3.8-3.5-6.7.4-3.1,1.2-4.2,2-2.1,3.7-3v-.2c-1.3-.9-2.2-1.8-2.8-2.7-.6-.9-.9-2.2-.9-3.8s.5-3.6,1.6-4.9c1-1.4,2.5-2.4,4.3-3.1s3.8-1.1,6.1-1.1,4.3.4,6.1,1.1h0ZM666.1,340.7c-.7.6-1.1,1.4-1.1,2.6s.4,2,1.1,2.5,1.8.8,3,.8,2.3-.3,3.1-.8,1.2-1.4,1.2-2.5-.4-2-1.2-2.6-1.8-.8-3.1-.8-2.3.3-3,.8ZM666.2,353.4c-.8.6-1.2,1.6-1.2,2.7s.4,2.1,1.1,2.7c.7.6,1.8,1,3,1s2.3-.3,3.1-1c.8-.6,1.2-1.6,1.2-2.7s-.4-2.1-1.2-2.7-1.8-1-3-1-2.2.3-2.9,1h0Z"/>
      <path d="M707.5,342.8c2.3,1.2,3.4,3.2,3.4,5.9v9.3c0,.5,0,.9.4,1.3.2.3.6.5,1.1.5h1.6v5.2s-.3.2-.7.3c-.4.1-.9.3-1.6.4-.7.1-1.5.2-2.4.2-1.7,0-3.2-.3-4.3-.8s-1.9-1.3-2.3-2.2c-1.1.9-2.4,1.6-3.8,2.2-1.4.5-3.1.8-5,.8-5.6,0-8.4-2.2-8.4-6.7s.6-4.1,1.9-5.3c1.2-1.2,3-2,5.4-2.5s5.4-.7,9.2-.7v-1.2c0-.9-.3-1.6-1-2.1-.6-.5-1.5-.7-2.5-.7s-1.7.2-2.4.5-1,.9-1,1.6v.2h-8.8v-.6c0-2.2,1.1-4,3.2-5.4s5.2-2,9.2-2,6.6.6,8.9,1.8h-.1ZM696.3,355.8c-1.2.6-1.8,1.3-1.8,2.2,0,1.5,1,2.2,3.1,2.2s2.2-.3,3.1-.9,1.3-1.4,1.3-2.3v-2c-2.6,0-4.4.3-5.6.8h0Z"/>
    </g>
  </g>
  <g class="st7">
    <g class="st7">
      <path d="M22,339.3c-1.2,2.3-2.7,4.7-4.4,7-1.7,2.3-3.3,4.2-4.7,5.7h8.9v-6.4c.9-1.3,1.9-2.9,2.8-4.7,1-1.8,1.6-3.3,1.9-4.5h3.8v15.6h4.3v6.6h-4.3v6.3h-8.5v-6.3H6.7v-6.7c1.6-2.3,3.2-5.2,4.8-8.5s2.9-6.6,3.8-9.9h8.8c-.2,1.6-.9,3.5-2.2,5.8h.1Z"/>
      <path d="M59,342.5c2.3,1.2,3.4,3.2,3.4,5.9v9.3c0,.5,0,.9.4,1.3.2.3.6.5,1.1.5h1.6v5.2s-.3.2-.7.3c-.4.1-.9.3-1.6.4-.7.1-1.5.2-2.4.2-1.7,0-3.2-.3-4.3-.8s-1.9-1.3-2.3-2.2c-1.1.9-2.4,1.6-3.8,2.2-1.4.5-3.1.8-5,.8-5.6,0-8.4-2.2-8.4-6.7s.6-4.1,1.9-5.3c1.2-1.2,3-2,5.4-2.5s5.4-.7,9.2-.7v-1.2c0-.9-.3-1.6-1-2.1-.6-.5-1.5-.7-2.5-.7s-1.7.2-2.4.5-1,.9-1,1.6v.2h-8.8v-.6c0-2.2,1.1-4,3.2-5.4,2.1-1.3,5.2-2,9.2-2s6.6.6,8.9,1.8h-.1ZM47.8,355.5c-1.2.6-1.8,1.3-1.8,2.2,0,1.5,1,2.2,3.1,2.2s2.2-.3,3.1-.9,1.3-1.4,1.3-2.3v-2c-2.6,0-4.4.3-5.6.8h0Z"/>
    </g>
  </g>
  <g>
    <rect x="103" y="350.3" width="510.5" height="4.8"/>
    <polyline class="st4" points="613.5 338.8 634.4 352.3 613.5 365.8"/>
    <polyline class="st4" points="103 366.3 82.2 352.7 103 339.2"/>
  </g>
  <g>
    <path class="st6" d="M559.9,326.6c7.2-.2,11.5,7.6,16.2,13.1,4.1,4.9,8.3,9.8,8.8,16.2.5,6.8-1.2,14.2-6.4,18.6-5,4.2-12.2,3.7-18.6,2.8-5.4-.8-9.3-4.5-13.8-7.6-6.3-4.4-17-6.1-17.4-13.8-.4-7.6,10.3-10.1,15.9-15.3,5.2-4.9,8.1-13.8,15.3-14h0Z"/>
    <path class="st5" d="M393.8,324.3c7.4,1.6,9.5,10.6,14.5,16.2,4.5,5,11.6,7.9,13,14.5,1.7,7.8,1.8,18.3-5,22.5s-14.5-4.9-22.5-5.5c-6.9-.5-13.8,6.1-19.7,2.6-6.4-3.8-8.3-12.2-8.8-19.7-.5-8.1.4-16.6,5.9-22.5,5.6-6.1,14.4-9.9,22.5-8.2h.1Z"/>
    <path class="st0" d="M314.7,326.9c6.2.9,11.5,4,16,8.3,4.7,4.4,9.2,9.6,9.4,16,.2,6.6-3.8,12.3-8.3,17.2-4.7,5.1-10.3,10.7-17.2,10.2-6.7-.5-9.7-8.2-14.7-12.7-5.5-5-14.2-7.4-15.5-14.7-1.5-7.9,2.5-16.5,8.7-21.5,5.9-4.7,14.1-3.9,21.5-2.8h.1Z"/>
    <path class="st3" d="M473.2,323.9c6.6-.2,12.1,4.3,16.9,8.8,5.2,4.7,10.3,10,11.1,16.9.8,7.6-1.7,15.5-7,21-5.4,5.6-13.3,9.2-21,7.8-6.9-1.3-9.8-9-14.5-14.3-4.3-4.7-11-8.1-11.3-14.5-.3-6.5,5.3-11.3,9.9-15.9s9.4-9.6,15.9-9.9h0Z"/>
    <path class="st1" d="M233.4,337.2c6.2-.4,11.6-8.5,17.2-5.8,5.3,2.5,2.9,11,5,16.5,2.1,5.8,9.5,11,7.2,16.7-2.4,5.9-11.3,4.7-17,7.5-4.3,2.1-7.6,7-12.4,6.6-4.7-.3-7-6-11.1-8.3-5.1-2.8-14.3-1-15.7-6.6-1.4-5.9,8.8-8.2,10.8-13.9,1.9-5.3-4.2-12.9.2-16.4,4.3-3.4,10.2,4.1,15.7,3.8h.1Z"/>
    <path class="st2" d="M162.3,333.1c6.3-1.2,13.2-4.1,18.6-.6,6,3.9,10.5,11.5,9.2,18.6-1.2,6.7-10.3,7.8-15,12.8-5.1,5.5-5.5,16.1-12.8,17.4-7.5,1.4-13.2-6.3-18.6-11.7-5.4-5.4-13.3-11-11.9-18.6,1.4-7.4,11.3-8.8,17.8-12.7,4.1-2.4,8-4.4,12.7-5.3h0Z"/>
  </g>
  <g class="st7">
    <g class="st7">
      <path d="M95.9,13.7c8.4,3.2,15.1,7.9,20.1,14.1,5,6.2,7.4,13.8,7.4,22.8h-33.7c0-4.6-2-8.3-6.1-11.1-4-2.8-8.9-4.2-14.7-4.2-8.3,0-14.6,2.2-18.9,6.6-4.3,4.4-6.4,10.7-6.4,18.8v10.2c0,8.1,2.1,14.4,6.4,18.8,4.3,4.4,10.5,6.6,18.9,6.6s10.7-1.4,14.7-4.1,6.1-6.2,6.1-10.5h-24.9v-22.4h58.6v61.4h-18.2l-3.5-10.9c-10,8.5-23.1,12.8-39.3,12.8s-31.9-4.8-41.1-14.3c-9.2-9.5-13.7-23.7-13.7-42.6s5.2-32.8,15.6-42.4c10.4-9.6,25.2-14.5,44.3-14.5s20,1.6,28.4,4.8h0Z"/>
      <path d="M204.2,120.8l-2.1-12.8c-3.3,4.6-7.6,8.2-13,10.8-5.4,2.6-11.1,3.9-17,3.9-9.8,0-17.2-2.7-22.1-8.2-4.9-5.4-7.4-13.3-7.4-23.5v-54.7h31.8v50.8c0,3.6.9,6.5,2.8,8.7,1.9,2.2,4.5,3.3,7.9,3.3s7.1-1.3,9.6-3.8c2.4-2.6,3.7-5.7,3.7-9.4v-49.5h31.8v84.4h-26Z"/>
      <path d="M328.6,45.4c8.1,7.2,12.2,18.3,12.2,33.2v5.4h-63.3c0,6.1,1.4,10.7,4.1,13.7,2.7,3.1,7,4.6,12.9,4.6s9.2-1.1,11.7-3.4c2.5-2.2,3.8-5.2,3.8-8.9h30.8c0,10.2-3.9,18.2-11.7,24-7.8,5.8-19.1,8.6-34,8.6s-27.8-3.6-36.4-10.9-12.9-18.4-12.9-33.2,4.2-25.5,12.6-32.9c8.4-7.5,20-11.2,34.8-11.2s27.2,3.6,35.4,10.9h0ZM277.7,69h31c0-4.4-1.3-7.8-3.8-10.4-2.5-2.6-6-3.8-10.5-3.8-10,0-15.6,4.7-16.8,14.2h0Z"/>
      <path d="M425,41.1c7.8,4.4,11.7,11.3,11.7,20.5h-29.6c0-3.1-1.4-5.3-4.2-6.6-1.9-1.1-4.3-1.6-7.2-1.6-7.7,0-11.5,1.8-11.5,5.4s1.3,3.5,4,4.3c2.7.9,7,1.8,13.1,2.7,7.5,1.1,13.7,2.3,18.7,3.8,5,1.4,9.4,4,13.1,7.7s5.6,8.8,5.6,15.4c0,10.8-4,18.4-12.1,23-8,4.6-18.6,6.9-31.6,6.9s-14.5-1-21.1-3.1-12-5.3-16.1-9.7c-4.2-4.4-6.2-9.9-6.2-16.6h29.6v.6c.1,3.6,1.6,6.2,4.6,7.6,2.9,1.4,6,2.2,9.3,2.2,8.8,0,13.3-2.1,13.3-6.2s-1.4-3.7-4.2-4.6c-2.8-1-7.3-2-13.6-3-7.6-1.3-13.8-2.7-18.6-4.2-4.8-1.5-9.1-4-12.7-7.6s-5.4-8.5-5.4-14.9c0-10.3,3.9-17.7,11.7-22.1,7.8-4.4,18-6.6,30.6-6.6s20.9,2.2,28.7,6.6h.1Z"/>
      <path d="M522.6,41.1c7.8,4.4,11.7,11.3,11.7,20.5h-29.6c0-3.1-1.4-5.3-4.2-6.6-1.9-1.1-4.3-1.6-7.2-1.6-7.7,0-11.5,1.8-11.5,5.4s1.3,3.5,4,4.3c2.7.9,7,1.8,13.1,2.7,7.5,1.1,13.7,2.3,18.7,3.8,5,1.4,9.4,4,13.1,7.7,3.7,3.7,5.6,8.8,5.6,15.4,0,10.8-4,18.4-12.1,23-8,4.6-18.6,6.9-31.6,6.9s-14.5-1-21.1-3.1-12-5.3-16.1-9.7c-4.2-4.4-6.2-9.9-6.2-16.6h29.6v.6c.1,3.6,1.6,6.2,4.6,7.6,2.9,1.4,6,2.2,9.3,2.2,8.8,0,13.3-2.1,13.3-6.2s-1.4-3.7-4.2-4.6c-2.8-1-7.3-2-13.6-3-7.6-1.3-13.8-2.7-18.6-4.2-4.8-1.5-9.1-4-12.7-7.6s-5.4-8.5-5.4-14.9c0-10.3,3.9-17.7,11.7-22.1,7.8-4.4,18-6.6,30.6-6.6s20.9,2.2,28.7,6.6h.1Z"/>
    </g>
  </g>
  <g class="st7">
    <g class="st7">
      <path d="M273.6,154.9c-3.6,3.9-9.1,6.8-16.3,8.7,3.4,2.6,6.1,5.7,8.1,9.2s2.9,7.2,2.9,11.1c0,10-3.8,17.5-11.3,22.6s-16.9,7.7-28.2,7.7h-13.5c-7.5,0-11.2,1.7-11.2,5.2s.8,3,2.5,4,4.6,1.5,8.7,1.5h32c10.4,0,18.3,2.7,23.7,8.2,5.3,5.5,8,12.8,8,21.9s-1.8,12.6-5.3,17.4c-3.6,4.9-8.4,8.5-14.4,11-6.1,2.5-12.6,3.7-19.8,3.7h-52.3c-4.3,0-8.2-1-11.8-3s-6.5-4.8-8.6-8.3-3.2-7.4-3.2-11.7,1.4-8.8,4.3-12.5c2.8-3.7,6.4-6.6,10.7-8.5-2.8-2-5.1-4.5-6.8-7.3s-2.5-5.9-2.5-9.3,1.7-8.8,5.2-12.5c3.4-3.7,7.7-6.3,12.8-7.6-4.6-3-8.3-6.4-11-10.2-2.7-3.9-4.1-7.9-4.1-12.2,0-10.9,4.4-18.7,13.3-23.4,8.8-4.7,20.6-7,35.2-7s11.6.4,15.5,1.1c5.8-3.7,9.6-7,11.3-10.1,1.7-3,2.6-5.2,2.6-6.5h29.2c0,7.2-1.8,12.8-5.4,16.7h-.3ZM199.7,252c-1.7,1.5-2.6,3.6-2.6,6.3s.9,4.9,2.7,6.6,4,2.5,6.6,2.5h27.8c2.6,0,4.8-.8,6.7-2.4,1.8-1.6,2.8-3.8,2.8-6.5s-.9-4.9-2.7-6.4-4-2.3-6.8-2.3h-27.8c-2.7,0-5,.7-6.7,2.2ZM210.5,175.2c-2.5,2-3.7,4.9-3.7,8.7s1.2,6.9,3.5,8.8c2.3,2,5.6,2.9,9.9,2.9s7.6-1,10.1-2.9c2.4-2,3.6-4.9,3.6-8.8s-1.2-6.9-3.6-8.8c-2.4-2-5.8-2.9-10.1-2.9s-7.1,1-9.6,3h0Z"/>
      <path d="M359.6,154.5c2.1.7,3.2,1,3.2,1.2v29.7h-11.4c-7.4,0-12.7,1.9-15.9,5.7-3.3,3.8-4.9,9.4-4.9,16.9v41.8h-35.4v-94h29l2.3,14.2c2.1-5.5,5.5-9.6,10.1-12.4,4.6-2.8,9.8-4.2,15.7-4.2s5.2.3,7.3,1h0Z"/>
      <path d="M458.8,160.9c9,4.8,13.5,12.6,13.5,23.4v36.7c0,2,.5,3.7,1.4,5s2.4,2,4.3,2h6.4v20.5c-.4.2-1.3.6-2.8,1.2-1.5.5-3.6,1.1-6.3,1.6-2.7.5-5.9.8-9.4.8-6.9,0-12.5-1-17-3.1s-7.5-5-9.2-8.6c-4.5,3.6-9.6,6.4-15.1,8.5-5.6,2.1-12.1,3.2-19.6,3.2-22.1,0-33.1-8.8-33.1-26.3s2.5-16.1,7.4-20.9c4.9-4.8,12-8.1,21.3-9.9s21.4-2.7,36.3-2.7v-4.6c0-3.7-1.3-6.5-3.8-8.4-2.6-1.9-5.8-2.8-9.9-2.8s-6.9.7-9.5,2c-2.7,1.3-4,3.4-4,6.2v.7h-34.9c-.1-.6-.2-1.4-.2-2.5,0-8.9,4.2-16,12.7-21.2s20.6-7.8,36.4-7.8,26,2.4,35.1,7.2v-.2ZM414.6,212.2c-4.8,2.2-7.2,5.1-7.2,8.8,0,5.9,4,8.9,12.1,8.9s8.7-1.2,12.2-3.7,5.3-5.6,5.3-9.3v-8c-10.1,0-17.5,1.1-22.3,3.3h-.1Z"/>
      <path d="M564.3,249.8l-3-13.3c-6.9,10.3-16.9,15.5-29.9,15.5s-22.5-4.2-29.4-12.5-10.3-20.6-10.3-36.8,3.4-28.3,10.3-36.6c6.9-8.2,16.7-12.4,29.4-12.4s19.6,3.6,26.3,10.9v-43.8h35.4v129h-28.8ZM527.1,198.2v9.4c0,12.1,5.1,18.2,15.3,18.2s9.1-1.8,11.7-5.5c2.6-3.7,3.9-8.5,3.9-14.4v-5.9c0-5.9-1.3-10.8-3.9-14.5-2.6-3.7-6.5-5.6-11.7-5.6-10.2,0-15.3,6.1-15.3,18.3Z"/>
      <path d="M702.7,165.8c9.1,8.1,13.6,20.4,13.6,37v6.1h-70.5c0,6.8,1.5,11.9,4.5,15.3,3,3.4,7.8,5.2,14.3,5.2s10.3-1.2,13.1-3.7,4.2-5.8,4.2-10h34.4c0,11.4-4.3,20.3-13,26.7s-21.3,9.6-37.9,9.6-31-4.1-40.6-12.2c-9.6-8.1-14.4-20.4-14.4-36.9s4.7-28.4,14.1-36.7c9.4-8.3,22.3-12.5,38.8-12.5s30.3,4,39.4,12.1h0ZM646,192.1h34.5c0-4.9-1.4-8.7-4.2-11.6-2.8-2.8-6.7-4.3-11.7-4.3-11.2,0-17.4,5.3-18.7,15.8h.1Z"/>
    </g>
  </g>
  <g class="st7">
    <g class="st7">
      <path d="M38.6,152.9v10.2h-8.4v15.2c0,1.8.3,3.1.9,4,.6.8,1.7,1.2,3.3,1.2h4.2v8.8c-1.2.4-2.8.7-4.7,1-1.9.3-3.6.4-5,.4-4.4,0-7.8-.8-10.2-2.4-2.4-1.6-3.6-4.3-3.6-8.2v-19.9h-5.6v-10.2h6.2l3.2-12.1h11.2v12.1h8.5Z"/>
      <path d="M66.2,153.3c2.2-.9,4.4-1.3,6.8-1.3,4.6,0,8.1,1.3,10.4,3.8,2.3,2.6,3.5,6.3,3.5,11.1v25.8h-15v-24c0-1.7-.4-3.1-1.3-4.1s-2.1-1.5-3.7-1.5-3.4.6-4.5,1.8c-1.2,1.2-1.7,2.7-1.7,4.4v23.4h-15v-54.7h15v19c1.6-1.6,3.5-2.9,5.7-3.7h-.2Z"/>
      <path d="M133.1,157.1c3.8,3.4,5.8,8.6,5.8,15.7v2.6h-29.9c0,2.9.6,5,1.9,6.5s3.3,2.2,6.1,2.2,4.4-.5,5.5-1.6c1.2-1.1,1.8-2.5,1.8-4.2h14.6c0,4.8-1.8,8.6-5.5,11.3s-9,4.1-16.1,4.1-13.1-1.7-17.2-5.2c-4.1-3.4-6.1-8.7-6.1-15.6s2-12,6-15.5,9.5-5.3,16.4-5.3,12.9,1.7,16.7,5.1h0ZM109.1,168.3h14.6c0-2.1-.6-3.7-1.8-4.9-1.2-1.2-2.8-1.8-4.9-1.8-4.7,0-7.4,2.2-7.9,6.7Z"/>
    </g>
  </g>
</svg>