<?xml version="1.0" encoding="UTF-8"?>
<svg id="Layer_1" xmlns="http://www.w3.org/2000/svg" version="1.1" viewBox="0 0 32 32">
  <!-- Generator: Adobe Illustrator 30.0.0, SVG Export Plug-In . SVG Version: 2.1.1 Build 123)  -->
  <defs>
    <style>
      .st0 {
        fill: #9a1c59;
        fill-rule: evenodd;
      }
    </style>
  </defs>
  <path class="st0" d="M15.2,6.1c3.5-.2,6.5-4.8,9.7-3.3,3,1.4,1.6,6.2,2.8,9.3,1.2,3.3,5.4,6.2,4.1,9.4-1.4,3.3-6.4,2.6-9.6,4.2-2.4,1.2-4.3,3.9-7,3.7-2.6-.2-3.9-3.4-6.3-4.7-2.9-1.6-8.1-.6-8.8-3.7-.8-3.3,5-4.6,6.1-7.8,1.1-3-2.4-7.3.1-9.2,2.4-1.9,5.7,2.3,8.8,2.1h0Z"/>
</svg>